<svg viewBox="0 0 1152.35 432.2" xmlns="http://www.w3.org/2000/svg"><g fill="#ffefd8"><path d="m65.45 358.87-5.61 32.07-8.52-32.07h-9.39l-8.43 48.34h9.59l5.62-32.04 8.49 32.04h9.36l8.45-48.34z"/><path d="m102.55 386.3 1.4-7.87h-14.87l2-11.42h17.48l1.44-8.14h-27.1l-8.42 48.34h27.13l1.44-8.1h-17.58l2.24-12.81z"/><path d="m136.3 358.87-8.92 16.54-3.74-16.54h-10.6l7.22 23.57-15.44 24.77h11.46l9.09-16.83 3.78 16.83h10.76l-7.38-23.94 15.1-24.4z"/><path d="m149.74 367.01h11.49l-7.01 40.2h9.62l7.02-40.2h11.66l1.44-8.14h-32.79z"/><path d="m212.93 358.87h-9.59l-8.42 48.34h26.3l1.44-8.1h-16.74z"/><path d="m227.04 407.21h27.13l1.44-8.1h-17.58l2.24-12.81h14.84l1.4-7.87h-14.87l2.01-11.42h17.48l1.43-8.14h-27.1z"/><path d="m291.1 358.87-13.43 34.96-2.37-34.96h-10.4l5.92 48.34h9.99l21.22-48.34z"/><path d="m326.73 386.3 1.4-7.87h-14.87l2-11.42h17.48l1.44-8.14h-27.1l-8.42 48.34h27.13l1.44-8.1h-17.58l2.24-12.81z"/><path d="m349.59 358.87h-9.59l-8.43 48.34h26.31l1.43-8.1h-16.74z"/><path d="m401 358.21a14.56 14.56 0 0 0 -10.4 3.73 14.11 14.11 0 0 0 -4.77 9.71 11.76 11.76 0 0 0 4.29 10.3 25.9 25.9 0 0 0 6.56 3.82c2.86 1.23 4.74 2.54 5.65 3.9a7.28 7.28 0 0 1 1 5.06 8.84 8.84 0 0 1 -3 5.91 8.7 8.7 0 0 1 -6.17 2 7 7 0 0 1 -5.83-2.62 9.5 9.5 0 0 1 -1.59-6.84h-6a14 14 0 0 0 3.26 10.45 12.82 12.82 0 0 0 9.75 4.25 15.31 15.31 0 0 0 10.74-3.59 13.79 13.79 0 0 0 4.77-9.63 12.12 12.12 0 0 0 -4.42-11 25.61 25.61 0 0 0 -6.24-3.54 13.55 13.55 0 0 1 -5.58-3.76 6.36 6.36 0 0 1 -1.26-4.8 9.07 9.07 0 0 1 2.83-5.94 8.29 8.29 0 0 1 6-2.18 6.12 6.12 0 0 1 5.19 2.44c1.13 1.58 1.59 3.9 1.36 7h6a14.08 14.08 0 0 0 -3-10.36 11.7 11.7 0 0 0 -9.14-4.31z"/><path d="m440.06 393.39a11.87 11.87 0 0 1 -3.43 7.13 9.22 9.22 0 0 1 -6.85 2.21c-4.1-.13-6.35-2.14-6.72-6a16 16 0 0 1 0-3.72l5.79-34.13h-5.85l-5.79 34.07q-.76 6.87 2.54 10.87t9.74 4.13a15.58 15.58 0 0 0 11.21-3.9q4.45-4 5.43-11.14l5.82-34h-6z"/><path d="m475.5 358.91h-14.61l-8.38 48.34h5.95l3.3-18.89h9.42a15.89 15.89 0 0 0 11.21-4 16.12 16.12 0 0 0 5-10.93q.57-6.28-2.66-10.29t-9.23-4.23zm5.19 17.63a9.4 9.4 0 0 1 -9.28 6.6l-8.75-.06 3.29-19h9.42a6.07 6.07 0 0 1 4.16 1.71 7.17 7.17 0 0 1 1.9 4.28 13.89 13.89 0 0 1 -.74 6.47z"/><path d="m512.47 358.91h-14.61l-8.38 48.34h6l3.29-18.89h9.42a15.89 15.89 0 0 0 11.21-4 16.12 16.12 0 0 0 5-10.93q.57-6.28-2.66-10.29t-9.27-4.23zm5.19 17.63a9.4 9.4 0 0 1 -9.28 6.6l-8.75-.06 3.29-19h9.42a6.07 6.07 0 0 1 4.16 1.71 7.17 7.17 0 0 1 1.9 4.28 13.89 13.89 0 0 1 -.74 6.47z"/><path d="m558.23 362a12.08 12.08 0 0 0 -9-3.75 15.47 15.47 0 0 0 -12.29 5.13q-4.89 5.3-6.54 14.92l-1.4 9a35.23 35.23 0 0 0 -.27 4.82q.1 7.26 3.51 11.45a11.92 11.92 0 0 0 9.47 4.32 15.56 15.56 0 0 0 12.25-5q4.81-5.14 6.52-14.81l1.43-9.2a38.82 38.82 0 0 0 .3-4.84l-.1-1.8q-.56-6.66-3.88-10.24zm-2 13.58-.3 3.22-1.57 10.16q-2.6 13.88-12.34 13.58a6.73 6.73 0 0 1 -5.88-3.24q-1.9-3.11-1.58-8.78l.24-2.69 1.43-9.6q1.23-7.29 4.42-11a9.83 9.83 0 0 1 8.16-3.54 6.75 6.75 0 0 1 5.85 3.11q1.95 2.93 1.61 8.74z"/><path d="m587.68 358.91h-12.81l-8.39 48.34h6l3.43-19.55h8.35l5 19.55h6.39v-.43l-5.65-20.46a16.44 16.44 0 0 0 6.68-5.24 15.6 15.6 0 0 0 2.9-8q.63-6.4-2.5-10.23t-9.4-3.98zm5.12 17.3a9.65 9.65 0 0 1 -3.57 4.61 10.15 10.15 0 0 1 -5.58 1.69l-6.89-.07 3.2-18.36h7.55a6.4 6.4 0 0 1 4.28 1.61 6.26 6.26 0 0 1 1.81 4 13.51 13.51 0 0 1 -.8 6.52z"/><path d="m603.55 364.08h12.35l-7.49 43.13h5.96l7.48-43.13h12.35l.93-5.21h-30.65z"/><path d="m648.11 407.21h5.95l3.7-21.34h15.87l.93-5.22h-15.9l2.89-16.57h18.54l.93-5.21h-24.53z"/><path d="m712 362a12.08 12.08 0 0 0 -9-3.75 15.5 15.5 0 0 0 -12.3 5.13q-4.87 5.3-6.54 14.92l-1.39 9a35.23 35.23 0 0 0 -.27 4.82q.1 7.26 3.51 11.45a11.9 11.9 0 0 0 9.47 4.32 15.54 15.54 0 0 0 12.24-5q4.83-5.14 6.53-14.81l1.43-9.2a38.82 38.82 0 0 0 .3-4.84l-.1-1.8q-.59-6.66-3.88-10.24zm-2 13.58-.3 3.22-1.56 10.16q-2.6 13.88-12.35 13.58a6.71 6.71 0 0 1 -5.87-3.24c-1.28-2.07-1.8-5-1.58-8.78l.23-2.69 1.43-9.6q1.23-7.29 4.43-11a9.82 9.82 0 0 1 8.15-3.54 6.77 6.77 0 0 1 5.86 3.11q1.89 2.93 1.56 8.74z"/><path d="m741.42 358.91h-12.81l-8.39 48.34h6l3.42-19.55h8.36l4.95 19.55h6.39v-.43l-5.63-20.42a16.41 16.41 0 0 0 6.69-5.24 15.69 15.69 0 0 0 2.9-8q.63-6.4-2.5-10.23t-9.38-4.02zm5.12 17.3a9.67 9.67 0 0 1 -3.58 4.61 10.09 10.09 0 0 1 -5.57 1.69l-6.89-.07 3.2-18.36h7.55a6.42 6.42 0 0 1 4.28 1.61 6.26 6.26 0 0 1 1.81 4 13.63 13.63 0 0 1 -.8 6.52z"/><path d="m793.21 400.44a9.31 9.31 0 0 1 -7 2.29 6.33 6.33 0 0 1 -4.91-2.29q-1.81-2.19-2.08-6.54a32.16 32.16 0 0 1 .33-6.34l1.33-8.6q1.2-7.83 4.46-11.77a9.84 9.84 0 0 1 8.26-3.77 6.51 6.51 0 0 1 4.09 1.31 6.84 6.84 0 0 1 2.14 3.41 20.39 20.39 0 0 1 .52 6.27h6q.3-7.59-2.94-11.87t-9.41-4.33a15.74 15.74 0 0 0 -12.51 5.34q-5 5.52-6.59 15.44l-1.33 8.54a31.81 31.81 0 0 0 -.27 4.61 22 22 0 0 0 1.58 8.13 11.64 11.64 0 0 0 11 7.61 15.33 15.33 0 0 0 11.5-4.14q4.54-4.32 5.64-11.9l-5.85.07q-1.31 6.09-3.96 8.53z"/><path d="m828.63 358.87-23.52 48.34h6.32l5.86-12.65h15.84l1.49 12.65h5.89l-6.75-48.34zm-8.88 30.48 10.18-21.91 2.56 21.91z"/><path d="m868.53 358.91h-12.81l-8.38 48.34h5.95l3.43-19.55h8.35l5 19.55h6.39v-.43l-5.62-20.42a16.41 16.41 0 0 0 6.69-5.24 15.59 15.59 0 0 0 2.89-8c.43-4.27-.41-7.68-2.49-10.23s-5.23-3.93-9.4-4.02zm5.13 17.3a9.67 9.67 0 0 1 -3.58 4.61 10.11 10.11 0 0 1 -5.57 1.69l-6.89-.07 3.19-18.36h7.56a6.38 6.38 0 0 1 4.27 1.61 6.22 6.22 0 0 1 1.82 4 13.63 13.63 0 0 1 -.8 6.52z"/><path d="m882.74 407.21h25.29l.94-5.21h-19.37l2.99-17.13h16.61l.9-5.21h-16.64l2.73-15.58h19.03l.93-5.21h-25.02z"/><path d="m924.24 388.08 1.53-10.14q1.23-7.71 4.39-11.23a9.77 9.77 0 0 1 8.12-3.29 6.66 6.66 0 0 1 5.28 2.4q1.85 2.3 1.85 7.23h5.92q.13-6.84-3.18-10.75t-9.57-4.12q-7.87-.16-12.68 5.18c-3 3.41-5.07 8.3-6.08 14.67l-1.5 9.53a32.84 32.84 0 0 0 -.24 4.85q.21 7.06 3.76 11.22a12.43 12.43 0 0 0 9.79 4.22 19.07 19.07 0 0 0 11.81-3.49 14.72 14.72 0 0 0 3.23-3.22l2.79-18h-14.46l-.93 5.22h8.62l-2 11.12a18.21 18.21 0 0 1 -4.1 2.41 11.45 11.45 0 0 1 -4.69.77q-7.29-.12-7.82-9.57v-2.29z"/><path d="m955.52 407.21h5.96l8.42-48.34h-5.96z"/><path d="m1004.17 358.87-16.87 38.95-4.56-38.95h-6.29l7.02 48.34h5.19l22.23-48.34z"/><path d="m1042.01 364.08.93-5.21h-25.03l-8.38 48.34h25.29l.93-5.21h-19.37l3-17.13h16.6l.9-5.21h-16.64l2.73-15.58z"/><path d="m1063.87 358.91h-12.81l-8.39 48.34h6l3.43-19.55h8.35l5 19.55h6.39v-.43l-5.62-20.42a16.54 16.54 0 0 0 6.69-5.24 15.68 15.68 0 0 0 2.89-8q.63-6.4-2.5-10.23t-9.43-4.02zm5.12 17.3a9.59 9.59 0 0 1 -3.57 4.61 10.15 10.15 0 0 1 -5.58 1.69l-6.88-.07 3.19-18.36h7.55a6.4 6.4 0 0 1 4.28 1.61 6.21 6.21 0 0 1 1.81 4 13.51 13.51 0 0 1 -.79 6.52z"/><path d="m1110.79 372.82a14.12 14.12 0 0 0 -3-10.36 11.71 11.71 0 0 0 -9.25-4.25 14.55 14.55 0 0 0 -10.4 3.73 14.12 14.12 0 0 0 -4.78 9.71 11.74 11.74 0 0 0 4.3 10.3 25.81 25.81 0 0 0 6.55 3.82c2.86 1.23 4.75 2.54 5.66 3.9a7.28 7.28 0 0 1 1 5.06 8.88 8.88 0 0 1 -3 5.91 8.71 8.71 0 0 1 -6.18 2 7 7 0 0 1 -5.82-2.62 9.55 9.55 0 0 1 -1.6-6.84h-6a14 14 0 0 0 3.33 10.46 12.82 12.82 0 0 0 9.75 4.25 15.3 15.3 0 0 0 10.73-3.59 13.84 13.84 0 0 0 4.78-9.63q.55-6.93-4.43-11a25.61 25.61 0 0 0 -6.24-3.54 13.51 13.51 0 0 1 -5.57-3.76 6.32 6.32 0 0 1 -1.27-4.8 9.12 9.12 0 0 1 2.83-5.94 8.31 8.31 0 0 1 6-2.18 6.13 6.13 0 0 1 5.2 2.44q1.69 2.37 1.36 7z"/></g><path d="m135.87 123.61 41.51 12.55q-4.19 17.46-13.17 29.17a57.16 57.16 0 0 1 -22.33 17.67q-13.32 6-33.93 6-25 0-40.83-7.26t-27.34-25.59q-11.51-18.28-11.5-46.81 0-38 20.23-58.46t57.25-20.43q29 0 45.53 11.71t24.63 36l-41.83 9.3q-2.19-7-4.6-10.24a27.22 27.22 0 0 0 -9.72-8.37 28 28 0 0 0 -12.86-2.93q-16.11 0-24.68 13-6.48 9.54-6.48 30.08 0 25.49 7.74 34.94t21.74 9.45q13.6 0 20.55-7.63t10.09-22.15z" fill="#fff"/><path d="m290.83 161.42h-56.78l-7.47 25.31h-48.36l57.61-153.29h54.67l57.6 153.29h-49.6zm-9.83-33.14-16.91-55.11-19.75 55.11z" fill="#fff"/><path d="m362.57 186.34v-153.28h78.94q22 0 33.56 3.77a35.7 35.7 0 0 1 18.72 14q7.11 10.17 7.11 24.79 0 12.75-5.44 22a42.56 42.56 0 0 1 -15 15q-6.08 3.66-16.64 6.07 8.47 2.82 12.33 5.65 2.63 1.88 7.58 8.05a59.94 59.94 0 0 1 6.63 9.53l22.94 44.41h-53.48l-25.32-46.83q-4.8-9.09-8.57-11.81a19.85 19.85 0 0 0 -11.6-3.56h-4.19v62.21zm47.57-91.17h20q3.24 0 12.55-2.09a12.54 12.54 0 0 0 7.69-4.81 14.21 14.21 0 0 0 3-8.89q0-7.42-4.71-11.4t-17.67-3.98h-20.86z" fill="#fff"/><path d="m530.11 33.06h141.89v32.73h-94.42v24.36l80.76-.08v31.26l-80.76.08v30.22l97.41-.08v34.72l-144.88.07z" fill="#fff"/><path d="m135.87 285.5 41.51 12.5q-4.19 17.47-13.17 29.18c-6 7.8-15.44 13.69-24.33 17.67s-25.2 6-38.93 6c-16.66 0-25.27-2.43-35.83-7.27s-17.67-13.35-25.34-25.58-11.5-27.8-11.5-46.82q0-38 20.23-58.46t57.25-20.43q29 0 45.53 11.72t24.63 36l-41.83 9.31q-2.19-7-4.6-10.25a27.29 27.29 0 0 0 -9.72-8.36 28 28 0 0 0 -12.86-2.93q-16.11 0-24.68 12.95-6.48 9.61-6.48 30.18 0 25.48 7.74 34.94t21.74 9.45q13.6 0 20.55-7.64t10.09-22.16z" fill="#fff"/><path d="m186.27 272.08q0-37.54 20.91-58.45t58.24-20.91q38.26 0 59 20.54t20.71 57.56q0 26.88-9.05 44.07a64.46 64.46 0 0 1 -26.14 26.77c-11.4 6.38-27.6 9.57-44.61 9.57-17.29 0-29.59-2.76-40.92-8.26s-20.51-14.22-27.55-26.14-10.59-26.83-10.59-44.75zm47.37.21q0 23.2 8.62 33.35t23.48 10.14q15.25 0 23.63-9.93t8.36-35.66q0-21.63-8.73-31.62t-23.68-10q-14.32 0-23 10.14t-8.68 33.58z" fill="#fff"/><path d="m362.57 195h44.23l57.71 84.8v-84.8h44.65v153.23h-44.65l-57.4-84.16v84.16h-44.54z" fill="#fff"/><path d="m529.4 195h44.23l57.71 84.8v-84.8h44.66v153.23h-44.66l-57.4-84.16v84.16h-44.54z" fill="#fff"/><path d="m1010.72 348.6h-48.21l-104.64-153.29h47.13z" fill="#fff"/><path d="m697.38 195h124.91v32.73h-77.44v24.27l56.74-.08v31.26l-56.74.08v30.22l80.39-.08v34.71l-127.86.08z" fill="#fff"/><path d="m973.39 194.95v41.74l-39.69.09v37.13l-39.91.12v37.13l-39.09-.03v37.26l71.72-.22 75.79-111.37h23.19v111.43h47.36v-111.43h51.31v-41.85z" fill="#ffefd8"/><path d="m877.62 310.13a8.4 8.4 0 0 1 -1.78 1.87c-4.64 3.6-11.53 2.56-15.66-1.43a8.73 8.73 0 0 1 -2.2-4.86 35 35 0 0 1 -.87-5.76c-.06-3.55.63-7.06.69-10.61.09-5.53-3.83-11.74-8.87-13.94a1.54 1.54 0 0 0 -1.73 0 1.62 1.62 0 0 0 -.19 2c2.81 6.31 3.36 13.17 4.83 19.8a24.14 24.14 0 0 1 -2 16c-2.26 4.74-4.58 9.47-7 14.13-2.27 4.39-3.65 9.2-6.11 13.5-2 3.52-4.91 6.72-8.71 8.13s-8.58.62-11.07-2.58c-2.3-2.95-2.22-7.09-1.59-10.78 1.26-7.37 4.61-13.1 8-19.6a40.73 40.73 0 0 0 4.21-20.73c-.48-8.07-3.5-15.44-6.59-22.8-3.91-9.3-6.38-18.93-6-29.14 0-.84.56-2.1-.49-2.46s-1.42 1-1.9 1.66a27.27 27.27 0 0 0 -4.74 20.8 128.33 128.33 0 0 1 2.08 12.95c.23 3.16-.7 5.7-3.87 6.89s-7.6.13-9.53-2.38a26.29 26.29 0 0 1 -5-13c-1.73-13.39.78-26.17 5.76-38.55a80.11 80.11 0 0 1 5.26-11.24 19.8 19.8 0 0 1 7.87-7 62.66 62.66 0 0 1 18.17-6.12c12.06-2.33 22.92-7.21 29.93-17.87 2.86-4.35 6.46-8 9.41-12.28a15.53 15.53 0 0 1 11.43-7c-1 4.1-1.72 8.1 1.84 11.58a7.48 7.48 0 0 0 6.11 2 6.83 6.83 0 0 1 -1.13 4.35c-3.41 5.13-7.64 9.62-11.26 14.6a36.64 36.64 0 0 1 -12 10.26 20 20 0 0 0 -10.48 14.31 37.68 37.68 0 0 0 .16 12.13c1.05 7.81 3.47 14.94 9.81 20.1 3.39 2.77 7.13 5.13 10.51 7.92 4.26 3.51 8.06 7.77 8.17 13.49.1 5.55.21 11.11-.2 16.64a57.3 57.3 0 0 1 -1.12 8.46c-.6 2.54-.9 4.71-2.15 6.56z" fill="#bacac3"/><path d="m810.72 182.38c.12-5.89 1.57-11.86 6-16.06 9.26-8.82 25.6-5 31.2 6.09 4.67 9.3-.27 20.91-8.65 26.23-10.1 6.41-24.24.45-27.85-10.94a16.41 16.41 0 0 1 -.7-5.32z" fill="#bacac3"/><path d="m926.18 101.78c.26 13.75-9.75 19.51-21.88 19.63-10 .11-18.36-9.13-18.24-19.24.15-11.91 7-19.93 17.66-19.87 13.02.07 23.21 7.51 22.46 19.48zm-36.26-.23c0 9.31 6.23 16.15 14.76 16.2 11.21.06 18.69-6.23 18.79-15.82.09-8.8-8.75-16.36-19.17-16.4-7.82-.03-14.37 7.27-14.38 16.02z" fill="#ffefd8"/><path d="m954.57 236.45c.49 0-6.1-1.57-7.89-5.55-5.24-11.61-10-25.66-6-41.78a162.7 162.7 0 0 0 3.09-18.07l.31-2.34c.94-7.05-5-17.09-11.78-19.9a3 3 0 0 0 -1.17-.25c-1.36 0-3 1.14-4.54 3.2a95.22 95.22 0 0 1 -13.17 14.24l-.58.51c-7.12 6.24-14.49 12.68-24.21 15.91a16.14 16.14 0 0 1 -4.56 1h-.66c-.54 0-1.08 0-1.62 0-3.69 0-6.25-1.51-7.59-4.51a11.17 11.17 0 0 1 1.36-11.75 31.58 31.58 0 0 1 11.6-9c13.29-6.42 22.39-15.5 27-27 7.59-18.76 23.07-23.14 35.71-24.87a37.88 37.88 0 0 1 5-.34c11 0 20.28 5.06 27.11 9.47a78.24 78.24 0 0 1 13.51 11.37 10.24 10.24 0 0 1 3.19 6c.24 2 .3 4.63-1.38 6.61s-4.18 2.35-6.43 2.46c-.3 0-.61 0-.91 0a15.45 15.45 0 0 1 -10.89-4.38 74.3 74.3 0 0 0 -8.39-6.83 19.69 19.69 0 0 0 -10.52-3.34c10 6.91 17.62 16.94 24.37 31.91 3.16 7 7.43 11.49 13.43 14.09 3.69 1.59 6.43 4.07 9.08 6.48l.75.67c1.9 1.7 3.76 4.85 1.88 10.17-1.59 4.5-6.18 4.5-7.69 4.5h-1.9a33.06 33.06 0 0 1 -26.08-12.79 110.78 110.78 0 0 1 -7.61-11c-.52 2.89-1.12 5.75-1.7 8.54-1.59 7.69-3.1 14.94-3.32 22.48-.1 3.19.71 6.11 1.86 9.9a43 43 0 0 1 2.23 12.44 14.1 14.1 0 0 1 -1.14 5.54c-1 2.49-3.36 5.57-8.72 6.12a8.58 8.58 0 0 1 -1.03.09z" fill="#ffefd8"/><path d="m1000.1 191.65a29.44 29.44 0 0 1 -23.33-11.57 138.56 138.56 0 0 1 -9.77-14.49c-.47-.77-.81-1.8-2-1.59s-1.29 1.15-1.43 2.1c-1.8 12.08-5.49 23.86-5.86 36.19-.12 3.9.92 7.46 2 11.06a39.48 39.48 0 0 1 2.07 11.4 10.7 10.7 0 0 1 -.87 4.17c-1 2.54-3.1 3.63-5.75 3.9s-4.26-1.21-5.25-3.4c-5.67-12.58-9.31-25.38-5.78-39.43 1.72-6.8 2.54-13.84 3.48-20.81 1.17-8.74-5.79-20.3-14-23.69-3.33-1.38-6.8-.06-10 4.09a92.27 92.27 0 0 1 -12.68 13.74c-7.03 6.26-14.15 12.68-23.43 15.68a13.53 13.53 0 0 1 -3.57.79c-2.42.09-5.17.55-6.45-2.3a7.52 7.52 0 0 1 .92-8.07 28.28 28.28 0 0 1 10.32-8c13-6.25 23.43-15.55 28.82-28.88 6.16-15.23 18.14-20.64 32.85-22.65 11.11-1.51 20.64 2.76 29.66 8.58a75.16 75.16 0 0 1 12.88 10.87 6.73 6.73 0 0 1 2.2 3.92c.44 3.86-.54 4.86-4.42 5.06a12.06 12.06 0 0 1 -9.19-3.4 76.81 76.81 0 0 0 -8.8-7.16c-5.17-3.53-10.92-4.35-17-3.9-1.14.08-2.32.28-2.72 1.59s.59 2.08 1.57 2.64c13 7.57 20.73 19.49 26.68 32.69 3.27 7.26 8 12.74 15.28 15.91 3.46 1.5 6.13 4.08 8.86 6.53 1.91 1.71 1.65 4.11.88 6.29-.69 2-2.55 2.1-4.35 2.1z" fill="#fff"/><path d="m889.92 101.55c0-8.75 6.56-16 14.38-16 10.42 0 19.26 7.6 19.17 16.4-.1 9.59-7.58 15.88-18.79 15.82-8.53-.07-14.76-6.91-14.76-16.22z" fill="#fff"/></svg>