<svg xmlns="http://www.w3.org/2000/svg" viewBox="0 0 1152.35 432.2"><defs><style>.cls-1{fill:#f7cfa4;}.cls-2{fill:#134f5c;}.cls-3{fill:#bacac3;}</style></defs><g id="tagline"><polygon class="cls-1" points="65.45 358.87 59.84 390.94 51.32 358.87 41.93 358.87 33.5 407.21 43.09 407.21 48.71 375.17 57.2 407.21 66.56 407.21 75.01 358.87 65.45 358.87"/><polygon class="cls-1" points="102.55 386.3 103.95 378.43 89.08 378.43 91.08 367.01 108.56 367.01 110 358.87 82.9 358.87 74.48 407.21 101.61 407.21 103.05 399.11 85.47 399.11 87.71 386.3 102.55 386.3"/><polygon class="cls-1" points="136.3 358.87 127.38 375.41 123.64 358.87 113.04 358.87 120.26 382.44 104.82 407.21 116.28 407.21 125.37 390.38 129.15 407.21 139.91 407.21 132.53 383.27 147.63 358.87 136.3 358.87"/><polygon class="cls-1" points="149.74 367.01 161.23 367.01 154.22 407.21 163.84 407.21 170.86 367.01 182.52 367.01 183.96 358.87 151.17 358.87 149.74 367.01"/><polygon class="cls-1" points="212.93 358.87 203.34 358.87 194.92 407.21 221.22 407.21 222.66 399.11 205.92 399.11 212.93 358.87"/><polygon class="cls-1" points="227.04 407.21 254.17 407.21 255.61 399.11 238.03 399.11 240.27 386.3 255.11 386.3 256.51 378.43 241.64 378.43 243.65 367.01 261.13 367.01 262.56 358.87 235.46 358.87 227.04 407.21"/><polygon class="cls-1" points="291.1 358.87 277.67 393.83 275.3 358.87 264.9 358.87 270.82 407.21 280.81 407.21 302.03 358.87 291.1 358.87"/><polygon class="cls-1" points="326.73 386.3 328.13 378.43 313.26 378.43 315.26 367.01 332.74 367.01 334.18 358.87 307.08 358.87 298.66 407.21 325.79 407.21 327.23 399.11 309.65 399.11 311.89 386.3 326.73 386.3"/><polygon class="cls-1" points="349.59 358.87 340 358.87 331.57 407.21 357.88 407.21 359.31 399.11 342.57 399.11 349.59 358.87"/><path class="cls-1" d="M401,358.21a14.56,14.56,0,0,0-10.4,3.73,14.11,14.11,0,0,0-4.77,9.71,11.76,11.76,0,0,0,4.29,10.3,25.9,25.9,0,0,0,6.56,3.82c2.86,1.23,4.74,2.54,5.65,3.9a7.28,7.28,0,0,1,1,5.06,8.84,8.84,0,0,1-3,5.91,8.7,8.7,0,0,1-6.17,2,7,7,0,0,1-5.83-2.62,9.5,9.5,0,0,1-1.59-6.84l-6,0A14,14,0,0,0,384,403.63a12.82,12.82,0,0,0,9.75,4.25,15.31,15.31,0,0,0,10.74-3.59,13.79,13.79,0,0,0,4.77-9.63,12.12,12.12,0,0,0-4.42-11,25.61,25.61,0,0,0-6.24-3.54,13.55,13.55,0,0,1-5.58-3.76,6.36,6.36,0,0,1-1.26-4.8,9.07,9.07,0,0,1,2.83-5.94,8.29,8.29,0,0,1,6-2.18,6.12,6.12,0,0,1,5.19,2.44c1.13,1.58,1.59,3.9,1.36,7h6a14.08,14.08,0,0,0-3-10.36A11.7,11.7,0,0,0,401,358.21Z"/><path class="cls-1" d="M440.06,393.39a11.87,11.87,0,0,1-3.43,7.13,9.22,9.22,0,0,1-6.85,2.21c-4.1-.13-6.35-2.14-6.72-6a16,16,0,0,1,0-3.72l5.79-34.13H423l-5.79,34.07q-.76,6.87,2.54,10.87t9.74,4.13a15.58,15.58,0,0,0,11.21-3.9q4.45-4,5.43-11.14l5.82-34h-6Z"/><path class="cls-1" d="M475.5,358.91l-14.61,0-8.38,48.34h5.95l3.3-18.89,9.42,0a15.89,15.89,0,0,0,11.21-4,16.12,16.12,0,0,0,5-10.93q.57-6.28-2.66-10.29T475.5,358.91Zm5.19,17.63a9.4,9.4,0,0,1-9.28,6.6l-8.75-.06,3.29-19,9.42,0a6.07,6.07,0,0,1,4.16,1.71,7.17,7.17,0,0,1,1.9,4.28A13.89,13.89,0,0,1,480.69,376.54Z"/><path class="cls-1" d="M512.47,358.91l-14.61,0-8.38,48.34h6l3.29-18.89,9.42,0a15.89,15.89,0,0,0,11.21-4,16.12,16.12,0,0,0,5-10.93q.57-6.28-2.66-10.29T512.47,358.91Zm5.19,17.63a9.4,9.4,0,0,1-9.28,6.6l-8.75-.06,3.29-19,9.42,0a6.07,6.07,0,0,1,4.16,1.71,7.17,7.17,0,0,1,1.9,4.28A13.89,13.89,0,0,1,517.66,376.54Z"/><path class="cls-1" d="M558.23,362a12.08,12.08,0,0,0-9-3.75,15.47,15.47,0,0,0-12.29,5.13q-4.89,5.3-6.54,14.92l-1.4,9a35.23,35.23,0,0,0-.27,4.82q.1,7.26,3.51,11.45a11.92,11.92,0,0,0,9.47,4.32,15.56,15.56,0,0,0,12.25-5q4.81-5.14,6.52-14.81l1.43-9.2a38.82,38.82,0,0,0,.3-4.84l-.1-1.8Q561.55,365.58,558.23,362Zm-2,13.58-.3,3.22-1.57,10.16q-2.6,13.88-12.34,13.58a6.73,6.73,0,0,1-5.88-3.24q-1.9-3.11-1.58-8.78l.24-2.69,1.43-9.6q1.23-7.29,4.42-11a9.83,9.83,0,0,1,8.16-3.54,6.75,6.75,0,0,1,5.85,3.11Q556.61,369.73,556.27,375.54Z"/><path class="cls-1" d="M587.68,358.91l-12.81,0-8.39,48.34h6l3.43-19.55h8.35l5,19.55h6.39l0-.43L590,386.36a16.44,16.44,0,0,0,6.68-5.24,15.6,15.6,0,0,0,2.9-8q.63-6.4-2.5-10.23T587.68,358.91Zm5.12,17.3a9.65,9.65,0,0,1-3.57,4.61,10.15,10.15,0,0,1-5.58,1.69l-6.89-.07,3.2-18.36,7.55,0a6.4,6.4,0,0,1,4.28,1.61,6.26,6.26,0,0,1,1.81,4A13.51,13.51,0,0,1,592.8,376.21Z"/><polygon class="cls-1" points="603.55 364.08 615.9 364.08 608.41 407.21 614.37 407.21 621.85 364.08 634.2 364.08 635.13 358.87 604.48 358.87 603.55 364.08"/><polygon class="cls-1" points="648.11 407.21 654.06 407.21 657.76 385.87 673.63 385.87 674.56 380.65 658.66 380.65 661.55 364.08 680.09 364.08 681.02 358.87 656.49 358.87 648.11 407.21"/><path class="cls-1" d="M712,362a12.08,12.08,0,0,0-9-3.75,15.5,15.5,0,0,0-12.3,5.13q-4.87,5.3-6.54,14.92l-1.39,9a35.23,35.23,0,0,0-.27,4.82q.1,7.26,3.51,11.45a11.9,11.9,0,0,0,9.47,4.32,15.54,15.54,0,0,0,12.24-5q4.83-5.14,6.53-14.81l1.43-9.2a38.82,38.82,0,0,0,.3-4.84l-.1-1.8Q715.29,365.58,712,362Zm-2,13.58-.3,3.22-1.56,10.16q-2.6,13.88-12.35,13.58a6.71,6.71,0,0,1-5.87-3.24c-1.28-2.07-1.8-5-1.58-8.78l.23-2.69,1.43-9.6q1.23-7.29,4.43-11a9.82,9.82,0,0,1,8.15-3.54,6.77,6.77,0,0,1,5.86,3.11Q710.33,369.73,710,375.54Z"/><path class="cls-1" d="M741.42,358.91l-12.81,0-8.39,48.34h6l3.42-19.55H738l4.95,19.55h6.39l0-.43-5.63-20.42a16.41,16.41,0,0,0,6.69-5.24,15.69,15.69,0,0,0,2.9-8q.63-6.4-2.5-10.23T741.42,358.91Zm5.12,17.3a9.67,9.67,0,0,1-3.58,4.61,10.09,10.09,0,0,1-5.57,1.69l-6.89-.07,3.2-18.36,7.55,0a6.42,6.42,0,0,1,4.28,1.61,6.26,6.26,0,0,1,1.81,4A13.63,13.63,0,0,1,746.54,376.21Z"/><path class="cls-1" d="M793.21,400.44a9.31,9.31,0,0,1-7,2.29,6.33,6.33,0,0,1-4.91-2.29q-1.81-2.19-2.08-6.54a32.16,32.16,0,0,1,.33-6.34l1.33-8.6q1.2-7.83,4.46-11.77a9.84,9.84,0,0,1,8.26-3.77,6.51,6.51,0,0,1,4.09,1.31,6.84,6.84,0,0,1,2.14,3.41,20.39,20.39,0,0,1,.52,6.27l6,0q.3-7.59-2.94-11.87T794,358.21a15.74,15.74,0,0,0-12.51,5.34q-5,5.52-6.59,15.44l-1.33,8.54a31.81,31.81,0,0,0-.27,4.61,22,22,0,0,0,1.58,8.13,11.64,11.64,0,0,0,11,7.61,15.33,15.33,0,0,0,11.5-4.14q4.54-4.32,5.64-11.9l-5.85.07Q795.86,398,793.21,400.44Z"/><path class="cls-1" d="M828.63,358.87l-23.52,48.34h6.32l5.86-12.65h15.84l1.49,12.65h5.89l-6.75-48.34Zm-8.88,30.48,10.18-21.91,2.56,21.91Z"/><path class="cls-1" d="M868.53,358.91l-12.81,0-8.38,48.34h5.95l3.43-19.55h8.35l5,19.55h6.39l0-.43-5.62-20.42a16.41,16.41,0,0,0,6.69-5.24,15.59,15.59,0,0,0,2.89-8c.43-4.27-.41-7.68-2.49-10.23S872.7,359,868.53,358.91Zm5.13,17.3a9.67,9.67,0,0,1-3.58,4.61,10.11,10.11,0,0,1-5.57,1.69l-6.89-.07,3.19-18.36,7.56,0a6.38,6.38,0,0,1,4.27,1.61,6.22,6.22,0,0,1,1.82,4A13.63,13.63,0,0,1,873.66,376.21Z"/><polygon class="cls-1" points="882.74 407.21 908.03 407.21 908.97 402 889.6 402 892.59 384.87 909.2 384.87 910.1 379.66 893.46 379.66 896.19 364.08 915.22 364.08 916.15 358.87 891.13 358.87 882.74 407.21"/><path class="cls-1" d="M924.24,388.08l1.53-10.14q1.23-7.71,4.39-11.23a9.77,9.77,0,0,1,8.12-3.29,6.66,6.66,0,0,1,5.28,2.4q1.85,2.3,1.85,7.23l5.92,0q.13-6.84-3.18-10.75t-9.57-4.12q-7.87-.16-12.68,5.18c-3,3.41-5.07,8.3-6.08,14.67l-1.5,9.53a32.84,32.84,0,0,0-.24,4.85q.21,7.06,3.76,11.22a12.43,12.43,0,0,0,9.79,4.22,19.07,19.07,0,0,0,11.81-3.49,14.72,14.72,0,0,0,3.23-3.22l2.79-18H935l-.93,5.22h8.62l-2,11.12a18.21,18.21,0,0,1-4.1,2.41,11.45,11.45,0,0,1-4.69.77q-7.29-.12-7.82-9.57V390.8Z"/><polygon class="cls-1" points="955.52 407.21 961.48 407.21 969.9 358.87 963.94 358.87 955.52 407.21"/><polygon class="cls-1" points="1004.17 358.87 987.3 397.82 982.74 358.87 976.45 358.87 983.47 407.21 988.66 407.21 1010.89 358.87 1004.17 358.87"/><polygon class="cls-1" points="1042.01 364.08 1042.94 358.87 1017.91 358.87 1009.53 407.21 1034.82 407.21 1035.75 402 1016.38 402 1019.38 384.87 1035.98 384.87 1036.88 379.66 1020.24 379.66 1022.97 364.08 1042.01 364.08"/><path class="cls-1" d="M1063.87,358.91l-12.81,0-8.39,48.34h6l3.43-19.55h8.35l5,19.55h6.39l0-.43-5.62-20.42a16.54,16.54,0,0,0,6.69-5.24,15.68,15.68,0,0,0,2.89-8q.63-6.4-2.5-10.23T1063.87,358.91Zm5.12,17.3a9.59,9.59,0,0,1-3.57,4.61,10.15,10.15,0,0,1-5.58,1.69l-6.88-.07,3.19-18.36,7.55,0a6.4,6.4,0,0,1,4.28,1.61,6.21,6.21,0,0,1,1.81,4A13.51,13.51,0,0,1,1069,376.21Z"/><path class="cls-1" d="M1110.79,372.82a14.12,14.12,0,0,0-3-10.36,11.71,11.71,0,0,0-9.25-4.25,14.55,14.55,0,0,0-10.4,3.73,14.12,14.12,0,0,0-4.78,9.71,11.74,11.74,0,0,0,4.3,10.3,25.81,25.81,0,0,0,6.55,3.82c2.86,1.23,4.75,2.54,5.66,3.9a7.28,7.28,0,0,1,1,5.06,8.88,8.88,0,0,1-3,5.91,8.71,8.71,0,0,1-6.18,2,7,7,0,0,1-5.82-2.62,9.55,9.55,0,0,1-1.6-6.84l-6,0a14,14,0,0,0,3.33,10.46,12.82,12.82,0,0,0,9.75,4.25,15.3,15.3,0,0,0,10.73-3.59,13.84,13.84,0,0,0,4.78-9.63q.55-6.93-4.43-11a25.61,25.61,0,0,0-6.24-3.54,13.51,13.51,0,0,1-5.57-3.76,6.32,6.32,0,0,1-1.27-4.8,9.12,9.12,0,0,1,2.83-5.94,8.31,8.31,0,0,1,6-2.18,6.13,6.13,0,0,1,5.2,2.44q1.69,2.37,1.36,7Z"/></g><g id="logo"><g id="care_connext" data-name="care connext"><g id="letters"><path class="cls-2" d="M135.87,123.61l41.51,12.55q-4.19,17.46-13.17,29.17A57.16,57.16,0,0,1,141.88,183q-13.32,6-33.93,6-25,0-40.83-7.26T39.78,156.15q-11.51-18.28-11.5-46.81,0-38,20.23-58.46t57.25-20.43q29,0,45.53,11.71t24.63,36l-41.83,9.3q-2.19-7-4.6-10.24a27.22,27.22,0,0,0-9.72-8.37,28,28,0,0,0-12.86-2.93q-16.11,0-24.68,13Q75.75,88.46,75.75,109q0,25.49,7.74,34.94t21.74,9.45q13.6,0,20.55-7.63T135.87,123.61Z"/><path class="cls-2" d="M290.83,161.42H234.05l-7.47,25.31H178.22L235.83,33.44H290.5l57.6,153.29H298.5ZM281,128.28,264.09,73.17l-19.75,55.11Z"/><path class="cls-2" d="M362.57,186.34V33.06h78.94q22,0,33.56,3.77a35.7,35.7,0,0,1,18.72,14Q500.9,61,500.9,75.62q0,12.75-5.44,22a42.56,42.56,0,0,1-15,15q-6.08,3.66-16.64,6.07,8.47,2.82,12.33,5.65,2.63,1.88,7.58,8.05a59.94,59.94,0,0,1,6.63,9.53l22.94,44.41H459.82L434.5,139.5q-4.8-9.09-8.57-11.81a19.85,19.85,0,0,0-11.6-3.56h-4.19v62.21Zm47.57-91.17h20q3.24,0,12.55-2.09a12.54,12.54,0,0,0,7.69-4.81,14.21,14.21,0,0,0,3-8.89q0-7.42-4.71-11.4T431,64H410.14Z"/><path class="cls-2" d="M530.11,33.06H672V65.79H577.58V90.15l80.76-.08v31.26l-80.76.08v30.22l97.41-.08v34.72l-144.88.07Z"/><path class="cls-2" d="M135.87,285.5,177.38,298q-4.19,17.47-13.17,29.18c-6,7.8-15.44,13.69-24.33,17.67s-25.2,6-38.93,6c-16.66,0-25.27-2.43-35.83-7.27S47.45,330.23,39.78,318s-11.5-27.8-11.5-46.82q0-38,20.23-58.46t57.25-20.43q29,0,45.53,11.72t24.63,36l-41.83,9.31q-2.19-7-4.6-10.25a27.29,27.29,0,0,0-9.72-8.36,28,28,0,0,0-12.86-2.93q-16.11,0-24.68,12.95-6.48,9.61-6.48,30.18,0,25.48,7.74,34.94t21.74,9.45q13.6,0,20.55-7.64T135.87,285.5Z"/><path class="cls-2" d="M186.27,272.08q0-37.54,20.91-58.45t58.24-20.91q38.26,0,59,20.54t20.71,57.56q0,26.88-9.05,44.07a64.46,64.46,0,0,1-26.14,26.77c-11.4,6.38-27.6,9.57-44.61,9.57-17.29,0-29.59-2.76-40.92-8.26s-20.51-14.22-27.55-26.14S186.27,290,186.27,272.08Zm47.37.21q0,23.2,8.62,33.35t23.48,10.14q15.25,0,23.63-9.93t8.36-35.66q0-21.63-8.73-31.62t-23.68-10q-14.32,0-23,10.14T233.64,272.29Z"/><path class="cls-2" d="M362.57,195H406.8l57.71,84.8V195h44.65V348.23H464.51l-57.4-84.16v84.16H362.57Z"/><path class="cls-2" d="M529.4,195h44.23l57.71,84.8V195H676V348.23H631.34l-57.4-84.16v84.16H529.4Z"/><path class="cls-2" d="M1010.72,348.6H962.51L857.87,195.31H905Z"/><path class="cls-2" d="M697.38,195H822.29v32.73H744.85V252l56.74-.08v31.26l-56.74.08v30.22l80.39-.08v34.71l-127.86.08Z"/></g><polygon id="stairs" class="cls-1" points="973.39 194.95 973.39 236.69 933.7 236.78 933.7 273.91 893.79 274.03 893.79 311.16 854.7 311.13 854.7 348.39 926.42 348.17 1002.21 236.8 1025.4 236.8 1025.4 348.23 1072.76 348.23 1072.76 236.8 1124.07 236.8 1124.07 194.95 973.39 194.95"/></g><g id="people"><g id="left_person" data-name="left person"><path class="cls-3" d="M877.62,310.13a8.4,8.4,0,0,1-1.78,1.87c-4.64,3.6-11.53,2.56-15.66-1.43a8.73,8.73,0,0,1-2.2-4.86,35,35,0,0,1-.87-5.76c-.06-3.55.63-7.06.69-10.61.09-5.53-3.83-11.74-8.87-13.94a1.54,1.54,0,0,0-1.73,0,1.62,1.62,0,0,0-.19,2c2.81,6.31,3.36,13.17,4.83,19.8a24.14,24.14,0,0,1-2,16c-2.26,4.74-4.58,9.47-7,14.13-2.27,4.39-3.65,9.2-6.11,13.5-2,3.52-4.91,6.72-8.71,8.13s-8.58.62-11.07-2.58c-2.3-2.95-2.22-7.09-1.59-10.78,1.26-7.37,4.61-13.1,8-19.6a40.73,40.73,0,0,0,4.21-20.73c-.48-8.07-3.5-15.44-6.59-22.8-3.91-9.3-6.38-18.93-6-29.14,0-.84.56-2.1-.49-2.46s-1.42,1-1.9,1.66a27.27,27.27,0,0,0-4.74,20.8,128.33,128.33,0,0,1,2.08,12.95c.23,3.16-.7,5.7-3.87,6.89s-7.6.13-9.53-2.38a26.29,26.29,0,0,1-5-13c-1.73-13.39.78-26.17,5.76-38.55A80.11,80.11,0,0,1,802.55,218a19.8,19.8,0,0,1,7.87-7,62.66,62.66,0,0,1,18.17-6.12c12.06-2.33,22.92-7.21,29.93-17.87,2.86-4.35,6.46-8,9.41-12.28a15.53,15.53,0,0,1,11.43-7c-1,4.1-1.72,8.1,1.84,11.58a7.48,7.48,0,0,0,6.11,2,6.83,6.83,0,0,1-1.13,4.35c-3.41,5.13-7.64,9.62-11.26,14.6a36.64,36.64,0,0,1-12,10.26,20,20,0,0,0-10.48,14.31,37.68,37.68,0,0,0,.16,12.13c1.05,7.81,3.47,14.94,9.81,20.1,3.39,2.77,7.13,5.13,10.51,7.92,4.26,3.51,8.06,7.77,8.17,13.49.1,5.55.21,11.11-.2,16.64a57.3,57.3,0,0,1-1.12,8.46C879.17,306.11,878.87,308.28,877.62,310.13Z"/><path class="cls-3" d="M810.72,182.38c.12-5.89,1.57-11.86,6-16.06,9.26-8.82,25.6-5,31.2,6.09,4.67,9.3-.27,20.91-8.65,26.23-10.1,6.41-24.24.45-27.85-10.94A16.41,16.41,0,0,1,810.72,182.38Z"/></g><g id="outline"><path class="cls-1" d="M926.18,101.78c.26,13.75-9.75,19.51-21.88,19.63-10,.11-18.36-9.13-18.24-19.24.15-11.91,7-19.93,17.66-19.87C916.74,82.37,926.93,89.81,926.18,101.78Zm-36.26-.23c0,9.31,6.23,16.15,14.76,16.2,11.21.06,18.69-6.23,18.79-15.82.09-8.8-8.75-16.36-19.17-16.4C896.48,85.5,889.93,92.8,889.92,101.55Z"/><path class="cls-1" d="M954.57,236.45c.49,0-6.1-1.57-7.89-5.55-5.24-11.61-10-25.66-6-41.78a162.7,162.7,0,0,0,3.09-18.07l.31-2.34c.94-7.05-5-17.09-11.78-19.9a3,3,0,0,0-1.17-.25c-1.36,0-3,1.14-4.54,3.2A95.22,95.22,0,0,1,913.42,166l-.58.51c-7.12,6.24-14.49,12.68-24.21,15.91a16.14,16.14,0,0,1-4.56,1l-.66,0c-.54,0-1.08,0-1.62,0-3.69,0-6.25-1.51-7.59-4.51a11.17,11.17,0,0,1,1.36-11.75,31.58,31.58,0,0,1,11.6-9c13.29-6.42,22.39-15.5,27-27,7.59-18.76,23.07-23.14,35.71-24.87a37.88,37.88,0,0,1,5-.34c11,0,20.28,5.06,27.11,9.47a78.24,78.24,0,0,1,13.51,11.37,10.24,10.24,0,0,1,3.19,6c.24,2,.3,4.63-1.38,6.61s-4.18,2.35-6.43,2.46c-.3,0-.61,0-.91,0a15.45,15.45,0,0,1-10.89-4.38,74.3,74.3,0,0,0-8.39-6.83,19.69,19.69,0,0,0-10.52-3.34c10,6.91,17.62,16.94,24.37,31.91,3.16,7,7.43,11.49,13.43,14.09,3.69,1.59,6.43,4.07,9.08,6.48l.75.67c1.9,1.7,3.76,4.85,1.88,10.17-1.59,4.5-6.18,4.5-7.69,4.5h-1.9A33.06,33.06,0,0,1,974,182.34a110.78,110.78,0,0,1-7.61-11c-.52,2.89-1.12,5.75-1.7,8.54-1.59,7.69-3.1,14.94-3.32,22.48-.1,3.19.71,6.11,1.86,9.9a43,43,0,0,1,2.23,12.44,14.1,14.1,0,0,1-1.14,5.54c-1,2.49-3.36,5.57-8.72,6.12A8.58,8.58,0,0,1,954.57,236.45Z"/></g><g id="right_person" data-name="right person"><path class="cls-2" d="M1000.1,191.65a29.44,29.44,0,0,1-23.33-11.57A138.56,138.56,0,0,1,967,165.59c-.47-.77-.81-1.8-2-1.59s-1.29,1.15-1.43,2.1c-1.8,12.08-5.49,23.86-5.86,36.19-.12,3.9.92,7.46,2,11.06a39.48,39.48,0,0,1,2.07,11.4,10.7,10.7,0,0,1-.87,4.17c-1,2.54-3.1,3.63-5.75,3.9s-4.26-1.21-5.25-3.4c-5.67-12.58-9.31-25.38-5.78-39.43,1.72-6.8,2.54-13.84,3.48-20.81,1.17-8.74-5.79-20.3-14-23.69-3.33-1.38-6.8-.06-10,4.09a92.27,92.27,0,0,1-12.68,13.74C903.9,169.58,896.78,176,887.5,179a13.53,13.53,0,0,1-3.57.79c-2.42.09-5.17.55-6.45-2.3a7.52,7.52,0,0,1,.92-8.07,28.28,28.28,0,0,1,10.32-8c13-6.25,23.43-15.55,28.82-28.88,6.16-15.23,18.14-20.64,32.85-22.65,11.11-1.51,20.64,2.76,29.66,8.58a75.16,75.16,0,0,1,12.88,10.87,6.73,6.73,0,0,1,2.2,3.92c.44,3.86-.54,4.86-4.42,5.06a12.06,12.06,0,0,1-9.19-3.4,76.81,76.81,0,0,0-8.8-7.16c-5.17-3.53-10.92-4.35-17-3.9-1.14.08-2.32.28-2.72,1.59s.59,2.08,1.57,2.64c13,7.57,20.73,19.49,26.68,32.69,3.27,7.26,8,12.74,15.28,15.91,3.46,1.5,6.13,4.08,8.86,6.53,1.91,1.71,1.65,4.11.88,6.29-.69,2-2.55,2.1-4.35,2.1Z"/><path class="cls-2" d="M889.92,101.55c0-8.75,6.56-16,14.38-16,10.42,0,19.26,7.6,19.17,16.4-.1,9.59-7.58,15.88-18.79,15.82C896.15,117.7,889.92,110.86,889.92,101.55Z"/></g></g></g></svg>