<svg width="500" height="500" viewBox="0 0 500 500" fill="none" xmlns="http://www.w3.org/2000/svg">
<path d="M59.3506 302.483C53.7427 302.483 49.1565 300.897 45.657 297.745C38.5276 291.289 38.8101 280.53 42.7878 273.249C46.396 266.619 52.2212 262.402 57.3509 258.664C72.8704 247.383 90.4548 234.602 104.996 219.756C121.32 203.085 136.013 181.697 151.272 152.44C153.076 148.962 154.88 145.463 156.663 141.941C163.879 127.77 171.334 113.098 181.05 99.9258C186.028 93.1659 193.049 84.8845 203.069 80.8416C206.938 79.2766 211.09 78.4941 215.437 78.4941C227.109 78.4941 238.26 84.2324 244.541 93.492C255.04 108.968 250.801 128.9 246.693 142.55C236.803 175.502 221.11 206.019 200.048 233.233L199.656 233.732C197.265 236.819 195.005 239.71 194.222 242.688C193.701 244.622 194.157 247.035 195.157 247.644C195.809 248.035 196.439 248.209 197.157 248.209C201.026 248.209 206.742 243.079 210.394 238.014C223.523 219.8 234.217 201.302 243.085 181.436C247.345 172.046 251.388 162.134 255.301 152.549C271.342 113.206 287.904 72.5385 324.747 47.8464C329.312 44.8686 341.245 38 353.83 38C356.786 38 359.612 38.3912 362.22 39.152C369.349 41.2604 374.892 46.4553 377.022 53.0848C379.043 59.3447 377.783 66.0394 373.544 71.4951C367.415 79.3853 358.373 82.8413 350.374 85.8626C349.135 86.3408 347.918 86.7973 346.722 87.2755C325.138 95.8612 312.053 116.749 304.098 131.704C296.077 146.789 288.817 162.743 281.797 178.154C271.537 200.716 260.974 223.864 247.758 245.34C235.651 264.989 213.111 301.57 182.137 301.57C178.399 301.57 174.617 301.027 170.9 299.962C162.488 297.549 156.228 292.224 152.794 284.551C146.338 270.053 151.142 250.252 157.249 237.688C163.357 225.103 170.53 213.105 177.464 201.52C185.941 187.326 194.722 172.654 201.287 157.309C202.873 153.614 204.286 150.006 204.199 146.723C204.112 143.572 202.504 141.376 200.287 141.376C199.113 141.376 197.831 141.92 196.548 142.941C194.309 144.702 192.57 147.397 190.549 150.723C183.963 161.526 177.594 172.741 171.443 183.588L169.096 187.717C167.552 190.326 166.009 193.021 164.379 195.847C142.078 234.298 108.365 292.376 66.0236 301.81C63.6326 302.266 61.459 302.483 59.3941 302.483H59.3506Z" fill="#E3E1F4"/>
<path d="M229.913 386.037C231.978 386.363 234.13 386.536 236.282 386.536L236.347 386.493C256.431 386.493 277.971 371.452 284.318 352.998C286.84 346.781 286.231 339.413 282.775 334.218C279.775 329.74 275.146 327.262 269.712 327.262C268.69 327.262 267.647 327.349 266.603 327.523C259.257 328.784 254.692 334.066 250.671 338.739C248.106 341.739 245.672 344.543 243.215 345.369L242.955 345.456C242.672 345.564 242.368 345.629 242.063 345.629C240.781 345.629 239.651 344.803 239.281 343.543C238.26 340.565 240.977 335.826 241.824 334.435C244.546 330.008 247.911 326.095 251.493 321.93L251.562 321.85L251.845 321.502L251.861 321.484C252.616 320.599 253.371 319.714 254.105 318.851C283.569 284.415 303.837 242.735 323.444 202.412L323.508 202.281L323.682 201.933C327.182 194.738 330.703 187.522 334.202 180.458C338.897 171.307 342.875 165.069 347.483 159.613C351.982 154.201 357.808 149.093 365.263 144.05C371.175 140.507 378.261 133.312 378.696 124.705C378.891 120.727 377.739 114.967 371.045 110.011C366.893 107.251 362.35 105.838 357.547 105.838C343.44 105.838 330.594 118.01 322.291 128.226C310.188 143.317 302.42 160.973 294.884 178.103L294.515 178.943C292.693 183.091 290.645 187.751 288.578 192.195C272.342 227.516 251.845 268.075 222.957 301.049C222.602 301.466 222.246 301.885 221.89 302.305C221.114 303.22 220.335 304.139 219.545 305.048L219.349 305.287C208.807 317.568 197.918 330.284 197.983 348.803C197.418 366.735 211.242 383.059 229.457 385.95L229.913 386.037Z" fill="#FEF1F8"/>
<path d="M262.321 484.435C265.821 486.739 270.059 488 274.254 488H274.298C280.797 488 286.361 485.087 289.556 480.001C294.245 472.468 292.864 464.697 291.648 457.857L291.643 457.83L291.625 457.729C291.131 454.984 290.665 452.388 290.665 449.919C290.23 430.861 306.393 413.194 322.039 396.092L322.256 395.854C328.114 389.438 333.647 383.379 338.245 377.299C340.484 374.343 342.94 371.299 345.222 368.474L345.319 368.354C348.115 364.891 351.014 361.301 353.764 357.541C369.349 336.261 381.521 314.677 389.955 293.354C397.888 273.292 407.778 243.731 402.149 218.539C399.041 204.715 389.564 193.76 377.978 190.673C375.153 189.913 372.305 189.543 369.458 189.543C364.915 189.543 360.524 190.5 356.416 192.391C340.966 199.453 333.532 214.641 326.969 228.049L326.964 228.059L324.66 232.733L324.404 233.255C316.326 249.733 308.686 265.319 298.555 280.182C297.229 282.117 295.729 284.138 294.208 286.16L293.447 287.181C288.622 293.637 284.122 300.071 282.014 307.657C280.623 312.678 281.275 317.72 283.818 321.524C286.318 325.306 290.121 327.371 294.49 327.371C300.098 327.371 305.554 323.785 308.771 320.437C327.681 300.81 339.658 276.183 348.874 254.686L348.883 254.665C351.213 249.22 356.642 236.536 363.133 236.536C363.415 236.536 363.72 236.558 364.024 236.602C365.35 236.797 366.176 237.275 366.85 238.297C369.653 242.557 368.632 253.338 366.48 261.576C362.981 274.9 357.851 287.572 350.765 300.331C341.962 316.199 331.202 331.805 318.813 346.694C312.509 354.284 305.769 361.795 299.236 369.076L298.294 370.126C288.122 381.45 277.602 393.166 268.103 405.642C256.061 421.51 244.215 440.572 247.867 461.765C249.584 471.633 254.844 479.914 262.321 484.435Z" fill="#FEF1F8"/>
</svg>
