<?xml version="1.0" encoding="UTF-8"?><svg id="Layer_2" xmlns="http://www.w3.org/2000/svg" viewBox="0 0 167.36 207.04"><defs><style>.cls-1{fill:#d9d9ff;}.cls-1,.cls-2{stroke-width:0px;}.cls-2{fill:#fff0f5;}</style></defs><g id="LOGO_4K"><g id="NCS_-OD"><path id="n" class="cls-1" d="m8.9,121.69c-2.58,0-4.69-.73-6.3-2.18-3.28-2.97-3.15-7.92-1.32-11.27,1.66-3.05,4.34-4.99,6.7-6.71,7.14-5.19,15.23-11.07,21.92-17.9,7.51-7.67,14.27-17.51,21.29-30.97.83-1.6,1.66-3.21,2.48-4.83,3.32-6.52,6.75-13.27,11.22-19.33,2.29-3.11,5.52-6.92,10.13-8.78,1.78-.72,3.69-1.08,5.69-1.08,5.37,0,10.5,2.64,13.39,6.9,4.83,7.12,2.88,16.29.99,22.57-4.55,15.16-11.77,29.2-21.46,41.72l-.18.23c-1.1,1.42-2.14,2.75-2.5,4.12-.24.89-.03,2,.43,2.28.3.18.59.26.92.26,1.78,0,4.41-2.36,6.09-4.69,6.04-8.38,10.96-16.89,15.04-26.03,1.96-4.32,3.82-8.88,5.62-13.29,7.38-18.1,15-36.81,31.95-48.17,2.1-1.37,7.59-4.53,13.38-4.53,1.36,0,2.66.18,3.86.53,3.28.97,5.83,3.36,6.81,6.41.93,2.88.35,5.96-1.6,8.47-2.82,3.63-6.98,5.22-10.66,6.61-.57.22-1.13.43-1.68.65-9.93,3.95-15.95,13.56-19.61,20.44-3.69,6.94-7.03,14.28-10.26,21.37-4.72,10.38-9.58,21.03-15.66,30.91-5.57,9.04-15.94,25.87-30.19,25.87-1.72,0-3.46-.25-5.17-.74-3.87-1.11-6.75-3.56-8.33-7.09-2.97-6.67-.76-15.78,2.05-21.56,2.81-5.79,6.11-11.31,9.3-16.64,3.9-6.53,7.94-13.28,10.96-20.34.73-1.7,1.38-3.36,1.34-4.87-.04-1.45-.78-2.46-1.8-2.46-.54,0-1.13.25-1.72.72-1.03.81-1.83,2.05-2.76,3.58-3.03,4.97-5.96,10.13-8.79,15.12l-1.08,1.9c-.71,1.2-1.42,2.44-2.17,3.74-10.26,17.69-25.77,44.41-45.25,48.75-1.1.21-2.1.31-3.05.31Z"/><path id="c" class="cls-2" d="m90.3,160.36c-.99,0-1.98-.08-2.93-.23l-.21-.04c-8.38-1.33-14.74-8.84-14.48-17.09-.03-8.52,4.98-14.37,9.83-20.02l.09-.11c.53-.61,1.05-1.23,1.57-1.84,13.29-15.17,22.72-33.83,30.19-50.08,1-2.15,1.99-4.41,2.86-6.39,3.48-7.91,7.06-16.07,12.65-23.04,3.82-4.7,9.73-10.3,16.22-10.3,2.21,0,4.3.65,6.21,1.92,3.08,2.28,3.61,4.93,3.52,6.76-.2,3.96-3.46,7.27-6.18,8.9-3.43,2.32-6.11,4.67-8.18,7.16-2.12,2.51-3.95,5.38-6.11,9.59-1.61,3.25-3.23,6.57-4.84,9.88l-.08.16c-9.03,18.57-18.36,37.77-31.93,53.63-.34.4-.69.81-1.04,1.22l-.13.16c-1.66,1.93-3.22,3.74-4.48,5.79-.39.64-1.64,2.82-1.17,4.19.17.58.69.96,1.28.96.14,0,.28-.03.41-.08l.12-.04c1.13-.38,2.25-1.67,3.43-3.05,1.85-2.15,3.95-4.58,7.33-5.16.48-.08.96-.12,1.43-.12,2.5,0,4.63,1.14,6.01,3.2,1.59,2.39,1.87,5.78.71,8.64-2.92,8.49-12.83,15.41-22.07,15.41Z"/><path id="s" class="cls-2" d="m107.77,207.04c-1.93,0-3.88-.58-5.49-1.64-3.44-2.08-5.86-5.89-6.65-10.43-1.68-9.75,3.77-18.52,9.31-25.82,4.37-5.74,9.21-11.13,13.89-16.34,3.14-3.5,6.4-7.12,9.44-10.78,5.7-6.85,10.65-14.03,14.7-21.33,3.26-5.87,5.62-11.7,7.23-17.83.99-3.79,1.46-8.75.17-10.71-.31-.47-.69-.69-1.3-.78-.14-.02-.28-.03-.41-.03-2.99,0-5.49,5.85-6.56,8.35-4.24,9.89-9.75,21.22-18.45,30.25-1.48,1.54-3.99,3.19-6.57,3.19-2.01,0-3.76-.95-4.91-2.69-1.17-1.75-1.47-4.07-.83-6.38.97-3.49,3.04-6.45,5.26-9.42l.35-.47c.7-.93,1.39-1.86,2-2.75,4.71-6.91,8.25-14.16,12.01-21.83l1.06-2.15c3.02-6.17,6.44-13.16,13.55-16.41,1.89-.87,3.91-1.31,6-1.31,1.31,0,2.62.17,3.92.52,5.33,1.42,9.69,6.46,11.12,12.82,2.59,11.59-1.96,25.19-5.61,34.42-3.88,9.81-9.48,19.74-16.65,29.53-1.28,1.75-2.63,3.42-3.93,5.03-1.05,1.3-2.18,2.7-3.21,4.06-2.14,2.83-4.72,5.65-7.45,8.64-7.2,7.87-14.64,16-14.44,24.77,0,1.15.22,2.36.45,3.64.56,3.15,1.2,6.73-.96,10.2-1.47,2.34-4.03,3.68-7.02,3.68Z"/></g></g></svg>